<?xml version="1.0" encoding="utf-8"?>
<svg version="1.1" x="0px" y="0px" viewBox="212.911 209.915 86.088 92.312" enable-background="new 206 206 100 100" xmlns="http://www.w3.org/2000/svg">
  <desc>Original artwork downloaded from https://thenounproject.com/term/archive/1590047/ on 2021-07-26.</desc>
  <g>
    <path d="M298.496,245.062l-8.314-10.443l6.85-11.643c0.184-0.313,0.187-0.701,0.006-1.016c-0.18-0.316-0.516-0.511-0.878-0.511   h-14.118v-10.201c0-0.559-0.454-1.013-1.013-1.013h-36.773c-0.007,0-0.013,0.002-0.02,0.002c-0.061,0.001-0.121,0.006-0.179,0.018   c-0.009,0.002-0.018,0.005-0.026,0.007c-0.049,0.011-0.098,0.027-0.145,0.045c-0.019,0.008-0.037,0.016-0.055,0.024   c-0.038,0.018-0.074,0.038-0.11,0.06c-0.015,0.01-0.03,0.019-0.045,0.028c-0.048,0.033-0.094,0.07-0.136,0.113l-13.284,13.283   c-0.042,0.042-0.079,0.088-0.112,0.136c-0.011,0.015-0.02,0.03-0.029,0.045c-0.022,0.036-0.042,0.073-0.06,0.111   c-0.008,0.018-0.016,0.036-0.023,0.054c-0.019,0.047-0.034,0.096-0.045,0.146c-0.002,0.008-0.005,0.016-0.007,0.024   c-0.012,0.059-0.017,0.12-0.019,0.18c0,0.007-0.001,0.013-0.001,0.02v5.462l-16.348,15.014c-0.39,0.357-0.439,0.953-0.114,1.369   l8.197,10.503l-6.658,11.654c-0.18,0.313-0.178,0.697,0.003,1.01s0.515,0.505,0.876,0.505h5.984v30.7   c0,0.56,0.454,1.014,1.013,1.014h43.952c0.017,0,0.03-0.005,0.047-0.005c0.051-0.003,0.102-0.007,0.152-0.016   c0.027-0.006,0.052-0.016,0.077-0.023c0.039-0.01,0.077-0.02,0.113-0.035c0.022-0.01,0.043-0.022,0.064-0.033   c0.037-0.019,0.076-0.036,0.111-0.061c0.014-0.009,0.023-0.021,0.037-0.029c0.039-0.03,0.079-0.059,0.115-0.096l22.089-22.089   c0.048-0.048,0.09-0.099,0.128-0.155c0.015-0.023,0.026-0.049,0.04-0.073c0.018-0.034,0.037-0.065,0.053-0.102   c0.014-0.032,0.021-0.066,0.031-0.1c0.009-0.03,0.02-0.058,0.025-0.089c0.013-0.065,0.021-0.132,0.021-0.197v-23.803l8.451-8.45   C298.784,246.045,298.818,245.465,298.496,245.062z M282.041,235.718h4.471l-4.471,4.471V235.718z M294.389,223.476l-6.011,10.217   h-6.337v-10.217H294.389z M280.016,242.215l-13.568,13.567h-34.462v-30.237h12.271c0.559,0,1.013-0.453,1.013-1.012v-12.271h34.748   V242.215z M225.346,255.782l4.614-4.641v4.641H225.346z M243.243,213.694v9.827h-9.826L243.243,213.694z M229.96,232.745v15.523   l-6.957,6.999l-7.333-9.398L229.96,232.745z M223.499,257.807h41.624l-5.838,10.217h-41.624L223.499,257.807z M223.926,299.739   v-29.688h35.947c0.363,0,0.698-0.195,0.878-0.51l5.103-8.929v39.127H223.926z M287.945,278.242l-20.066,20.066v-38.871l7.057,8.863   c0.179,0.227,0.446,0.365,0.734,0.382c0.019,0.001,0.037,0.001,0.058,0.001c0.268,0,0.524-0.106,0.716-0.296l11.502-11.503V278.242   z M275.812,266.153l-7.477-9.396l13.406-13.404c0.001-0.002,0.004-0.004,0.006-0.006l7.124-7.123l7.478,9.392L275.812,266.153z" style="fill: rgb(255, 110, 30);"/>
    <path d="M266.98,249.954h-29.366c-0.56,0-1.013,0.454-1.013,1.013c0,0.56,0.454,1.012,1.013,1.012h29.366   c0.56,0,1.012-0.453,1.012-1.012C267.991,250.407,267.539,249.954,266.98,249.954z" style="fill: rgb(255, 110, 30);"/>
    <path d="M271.594,245.565h-33.98c-0.559,0-1.013,0.454-1.013,1.012c0,0.56,0.454,1.013,1.013,1.013h33.98   c0.561,0,1.014-0.453,1.014-1.013C272.608,246.019,272.155,245.565,271.594,245.565z" style="fill: rgb(255, 110, 30);"/>
    <path d="M274.387,241.177h-36.773c-0.559,0-1.013,0.454-1.013,1.013c0,0.56,0.454,1.013,1.013,1.013h36.773   c0.559,0,1.013-0.454,1.013-1.013C275.4,241.63,274.946,241.177,274.387,241.177z" style="fill: rgb(255, 110, 30);"/>
    <path d="M274.387,236.789h-36.773c-0.559,0-1.013,0.453-1.013,1.012c0,0.559,0.454,1.013,1.013,1.013h36.773   c0.559,0,1.013-0.454,1.013-1.013C275.4,237.242,274.946,236.789,274.387,236.789z" style="fill: rgb(255, 110, 30);"/>
    <path d="M274.387,232.401h-36.773c-0.56,0-1.013,0.453-1.013,1.013c0,0.559,0.454,1.012,1.013,1.012h36.773   c0.56,0,1.014-0.454,1.014-1.012C275.401,232.854,274.947,232.401,274.387,232.401z" style="fill: rgb(255, 110, 30);"/>
    <path d="M250.155,225.649h24.232c0.559,0,1.013-0.454,1.013-1.013s-0.454-1.013-1.013-1.013h-24.232   c-0.559,0-1.012,0.454-1.012,1.013S249.596,225.649,250.155,225.649z" style="fill: rgb(255, 110, 30);"/>
    <path d="M250.155,221.261h24.232c0.559,0,1.013-0.454,1.013-1.013c0-0.559-0.454-1.013-1.013-1.013h-24.232   c-0.559,0-1.012,0.454-1.012,1.013C249.143,220.808,249.596,221.261,250.155,221.261z" style="fill: rgb(255, 110, 30);"/>
    <path d="M274.387,230.037c0.559,0,1.013-0.454,1.013-1.013s-0.454-1.012-1.013-1.012h-24.232c-0.559,0-1.012,0.453-1.012,1.012   s0.453,1.013,1.012,1.013H274.387z" style="fill: rgb(255, 110, 30);"/>
  </g>
  <text style="fill: rgb(255, 110, 30); font-family: &quot;Helvetica Neue&quot;, Helvetica, Arial-Unicode, Arial, sans-serif; font-size: 5px; font-weight: 700; white-space: pre;" x="206" y="321">Created by Cuby Design</text>
  <text style="fill: rgb(255, 110, 30); font-family: &quot;Helvetica Neue&quot;, Helvetica, Arial-Unicode, Arial, sans-serif; font-size: 5px; font-weight: 700; white-space: pre;" x="206" y="326">from the Noun Project</text>
</svg>